<svg xmlns="http://www.w3.org/2000/svg" viewBox="0 0 352.2 65.88"><defs><style>.cls-1{fill:#5680f1;}.cls-2{fill:#4b35ef;}.cls-3{fill:#8f28ee;}.cls-4{fill:#f119bb;}.cls-5{fill:#fff;}</style></defs><title>Asset 2</title><g id="Layer_2" data-name="Layer 2"><g id="Layer_1-2" data-name="Layer 1"><circle class="cls-1" cx="11.46" cy="34.37" r="11.46"/><circle class="cls-2" cx="40.1" cy="11.46" r="11.46"/><circle class="cls-3" cx="74.48" cy="31.51" r="11.46"/><circle class="cls-4" cx="45.83" cy="54.42" r="11.46"/><path class="cls-5" d="M149.87,20.25h13.7V40.71a32.53,32.53,0,0,1-.82,8,16.66,16.66,0,0,1-2.87,5.7,17.71,17.71,0,0,1-6.48,5.3,18.31,18.31,0,0,1-8.2,2,16.17,16.17,0,0,1-5.58-.9,25.86,25.86,0,0,1-5.7-2.91,26,26,0,0,1-5.82,3,18.27,18.27,0,0,1-5.83.86,19.34,19.34,0,0,1-11.07-3.4,17.35,17.35,0,0,1-4.1-3.94,17.16,17.16,0,0,1-2.79-5.9,28.75,28.75,0,0,1-.91-7.8V20.25h13.7v21.9q0,6.08,4.72,6.07t4.8-6.4V20.25h13.7V41.82c.05,4.27,1.67,6.4,4.84,6.4a4.22,4.22,0,0,0,3.57-1.56,8.12,8.12,0,0,0,1.14-4.84V20.25Z"/><path class="cls-5" d="M194.62,40.63V20.25h13.7V40.59a36.81,36.81,0,0,1-.61,7.51,17.1,17.1,0,0,1-2.22,5.29,16.78,16.78,0,0,1-4,4.47,18,18,0,0,1-5.29,2.83,18.72,18.72,0,0,1-6.23,1,18.42,18.42,0,0,1-10-2.83,16.87,16.87,0,0,1-6.77-7.58,19.23,19.23,0,0,1-1.39-4.56,37.08,37.08,0,0,1-.37-6.15V20.25h13.7V42c0,4.18,1.64,6.27,4.75,6.27s4.76-2.09,4.76-6.27Z"/><path class="cls-5" d="M229.9,40.71V60.89H216.2V40.71a36.13,36.13,0,0,1,.61-7.34A18,18,0,0,1,219,27.92a17.18,17.18,0,0,1,6.6-6.16,19.65,19.65,0,0,1,19.07.62A17,17,0,0,1,251.35,30a15.34,15.34,0,0,1,1.39,4.35,40.67,40.67,0,0,1,.37,6.35V60.89h-13.7V39.32q-.07-6.24-4.76-6.24t-4.75,6.24Z"/><path class="cls-5" d="M261,38.79V4.91h13.69v34a12.76,12.76,0,0,0,1,5.66,6.45,6.45,0,0,0,2.58,2.62,7.33,7.33,0,0,0,3.65,1,7.31,7.31,0,0,0,6.44-3.78,7.34,7.34,0,0,0-2.75-10.17,8.25,8.25,0,0,0-3.89-.94,13.37,13.37,0,0,0-4.51.94V20.08a20.46,20.46,0,0,1,4.39-.53,21.91,21.91,0,0,1,10.78,2.75,20.18,20.18,0,0,1,7.75,7.59,20.59,20.59,0,0,1,2.83,10.62,21.27,21.27,0,0,1-10.37,18.37A20.36,20.36,0,0,1,282,61.71,21.11,21.11,0,0,1,271.44,59a20.87,20.87,0,0,1-10.45-18Z"/><path class="cls-4" d="M308.6,11.76a7.76,7.76,0,0,1,1-3.86,7.9,7.9,0,0,1,2.67-2.79,7.38,7.38,0,0,1,7.42,0,7.65,7.65,0,0,1,2.71,2.71,7.91,7.91,0,0,1,.94,3.73,7.33,7.33,0,0,1-11,6.32,7.36,7.36,0,0,1-2.71-2.63A6.56,6.56,0,0,1,308.6,11.76Z"/><rect class="cls-5" x="309.1" y="20.25" width="13.74" height="40.65"/><path class="cls-5" d="M344.66,20.25h7.54V34h-7.54v8.36A6.54,6.54,0,0,0,346,46.83a5.41,5.41,0,0,0,4.14,1.39c.17,0,.86-.07,2.09-.21V61.55a23.19,23.19,0,0,1-2.7.2,18.59,18.59,0,0,1-5.74-.86,16.57,16.57,0,0,1-5.05-2.46,17.38,17.38,0,0,1-4.06-3.89,20.47,20.47,0,0,1-2.26-4,17.63,17.63,0,0,1-1.1-4.51,57.93,57.93,0,0,1-.33-6.73v-31h13.7Z"/></g></g></svg>